<svg width="20" height="20" viewBox="0 0 20 20" fill="none" xmlns="http://www.w3.org/2000/svg">
<g clip-path="url(#clip0_303_107)">
<path fill-rule="evenodd" clip-rule="evenodd" d="M0 0H28.5V1.53906H0V0ZM0 3.07812H28.5V4.61719H0V3.07812ZM0 6.15234H28.5V7.69531H0V6.15234ZM0 9.23047H28.5V10.7695H0V9.23047ZM0 12.3086H28.5V13.8477H0V12.3086ZM0 15.3828H28.5V16.9219H0V15.3828ZM0 18.4609H28.5V20H0V18.4609Z" fill="#BD3D44"/>
<path fill-rule="evenodd" clip-rule="evenodd" d="M0 1.53906H28.5V3.07812H0V1.53906ZM0 4.61719H28.5V6.15234H0V4.61719ZM0 7.69141H28.5V9.23047H0V7.69141ZM0 10.7695H28.5V12.3086H0V10.7695ZM0 13.8477H28.5V15.3867H0V13.8477ZM0 16.9219H28.5V18.4609H0V16.9219Z" fill="white"/>
<path fill-rule="evenodd" clip-rule="evenodd" d="M0 0H11.3994V10.7695H0V0Z" fill="#192F5D"/>
<path fill-rule="evenodd" clip-rule="evenodd" d="M0.949219 0.460938L1.05469 0.886718H1.38867L1.11914 1.14844L1.22168 1.57812L0.949219 1.3125L0.679688 1.57422L0.782227 1.14844L0.509766 0.886718H0.849609L0.949219 0.460938ZM2.85059 0.460938L2.95313 0.886718H3.29004L3.01758 1.14844L3.12012 1.57812L2.85059 1.3125L2.57812 1.57422L2.68066 1.14844L2.41113 0.886718H2.74512L2.85059 0.460938ZM4.74902 0.460938L4.85449 0.886718H5.18555L4.91602 1.14844L5.01856 1.57812L4.74609 1.3125L4.47656 1.57422L4.5791 1.14844L4.30664 0.886718H4.64356L4.74902 0.460938ZM6.65039 0.460938L6.75293 0.886718H7.08984L6.81738 1.14844L6.92285 1.57812L6.65039 1.3125L6.37793 1.57422L6.4834 1.14844L6.21094 0.886718H6.54492L6.65039 0.460938ZM8.54883 0.460938L8.6543 0.886718H8.98828L8.71875 1.14844L8.82129 1.57812L8.54883 1.3125L8.2793 1.57422L8.38184 1.14844L8.11231 0.886718H8.44629L8.54883 0.460938ZM10.4502 0.460938L10.5527 0.886718H10.8896L10.6172 1.14844L10.7227 1.57812L10.4502 1.3125L10.1777 1.57422L10.2832 1.14844L10.0107 0.886718H10.3477L10.4502 0.460938ZM1.90137 1.53906L2.00391 1.96484H2.34082L2.06836 2.22656L2.16797 2.65234L1.9043 2.39062L1.63184 2.65234L1.72852 2.22656L1.46484 1.96484H1.79883L1.90137 1.53906ZM3.7998 1.53906L3.90527 1.96484H4.23926L3.9668 2.22656L4.07227 2.65234L3.7998 2.39062L3.52734 2.65234L3.63281 2.22656L3.36035 1.96484H3.69727L3.7998 1.53906ZM5.70117 1.53906L5.80371 1.96484H6.14063L5.86816 2.22656L5.9707 2.65234L5.70117 2.39062L5.42871 2.65234L5.53125 2.22656L5.26172 1.96484H5.5957L5.70117 1.53906ZM7.59961 1.53906L7.70508 1.96484H8.03906L7.7666 2.22656L7.87207 2.65234L7.59961 2.39062L7.33008 2.65234L7.43262 2.22656L7.16016 1.96484H7.5L7.59961 1.53906ZM9.50098 1.53906L9.60352 1.96484H9.94043L9.66797 2.22656L9.77051 2.65234L9.50098 2.39062L9.22852 2.65234L9.33106 2.22656L9.06152 1.96484H9.39551L9.50098 1.53906ZM0.949219 2.61328L1.05469 3.04687H1.38867L1.11914 3.30859L1.22168 3.73437L0.949219 3.46875L0.679688 3.73437L0.782227 3.30468L0.509766 3.04296H0.849609L0.949219 2.61328ZM2.85059 2.61328L2.95313 3.04296H3.29004L3.01758 3.30468L3.12012 3.73046L2.85059 3.46484L2.57812 3.73046L2.68066 3.30078L2.41113 3.03906H2.74512L2.85059 2.61328ZM4.74902 2.61328L4.85449 3.04296H5.18555L4.91602 3.30468L5.01856 3.73046L4.74609 3.46484L4.47656 3.73046L4.5791 3.30078L4.30664 3.03906H4.64356L4.74902 2.61328ZM6.65039 2.61328L6.75293 3.04296H7.08984L6.81738 3.30468L6.92285 3.73046L6.65039 3.46484L6.37793 3.73046L6.4834 3.30078L6.21094 3.03906H6.54492L6.65039 2.61328ZM8.54883 2.61328L8.6543 3.04296H8.98828L8.71875 3.30468L8.82129 3.73046L8.54883 3.46484L8.2793 3.73046L8.38184 3.30078L8.11231 3.03906H8.44629L8.54883 2.61328ZM10.4502 2.61328L10.5527 3.04296H10.8896L10.6172 3.30468L10.7227 3.73046L10.4502 3.46484L10.1777 3.73046L10.2832 3.30078L10.0107 3.03906H10.3477L10.4502 2.61328ZM1.90137 3.6914L2.00391 4.11718H2.34082L2.06836 4.3789L2.1709 4.80859L1.90137 4.54296L1.62891 4.80468L1.73145 4.3789L1.46191 4.11718H1.7959L1.90137 3.6914ZM3.7998 3.6914L3.90527 4.11718H4.23926L3.9668 4.3789L4.07227 4.80859L3.7998 4.54296L3.52734 4.80468L3.63281 4.3789L3.36035 4.11718H3.69727L3.7998 3.6914ZM5.70117 3.6914L5.80371 4.11718H6.14063L5.86816 4.3789L5.9707 4.80859L5.70117 4.54296L5.42871 4.80468L5.53125 4.3789L5.26172 4.11718H5.5957L5.70117 3.6914ZM7.59961 3.6914L7.70508 4.11718H8.03906L7.76953 4.3789L7.87207 4.80859L7.59961 4.54296L7.33008 4.80468L7.43262 4.3789L7.16016 4.11718H7.5L7.59961 3.6914ZM9.50098 3.6914L9.60352 4.11718H9.94043L9.66797 4.3789L9.77051 4.80859L9.50098 4.54296L9.22852 4.80468L9.33106 4.3789L9.06152 4.11718H9.39551L9.50098 3.6914ZM0.949219 4.76952L1.05469 5.19531H1.38867L1.11914 5.45702L1.22168 5.88671L0.949219 5.62109L0.679688 5.8828L0.782227 5.45702L0.509766 5.19531H0.849609L0.949219 4.76952ZM2.85059 4.76952L2.95313 5.19531H3.29004L3.01758 5.45702L3.12012 5.8828L2.85059 5.62109L2.57812 5.8828L2.68066 5.45702L2.41113 5.19531H2.74512L2.85059 4.76952ZM4.74902 4.76952L4.85449 5.19531H5.18555L4.91602 5.45702L5.01856 5.88671L4.74609 5.62109L4.47656 5.8828L4.5791 5.45702L4.30664 5.19531H4.64356L4.74902 4.76952ZM6.65039 4.76952L6.75293 5.19531H7.08984L6.81738 5.45702L6.92285 5.88671L6.65039 5.62109L6.37793 5.8828L6.4834 5.45702L6.21094 5.19531H6.54492L6.65039 4.76952ZM8.54883 4.76952L8.6543 5.19531H8.98828L8.71875 5.45702L8.82129 5.88671L8.54883 5.62109L8.2793 5.8828L8.38184 5.45702L8.11231 5.19531H8.44629L8.54883 4.76952ZM10.4502 4.76952L10.5527 5.19531H10.8896L10.6172 5.45702L10.7227 5.88671L10.4502 5.62109L10.1777 5.8828L10.2832 5.45702L10.0107 5.19531H10.3477L10.4502 4.76952ZM1.90137 5.84765L2.00391 6.27343H2.34082L2.06836 6.53515L2.1709 6.96093L1.90137 6.6953L1.62891 6.96093L1.73145 6.53124L1.46191 6.26952H1.7959L1.90137 5.84765ZM3.7998 5.84765L3.90527 6.27343H4.23926L3.9668 6.53515L4.07227 6.96093L3.7998 6.6953L3.52734 6.96093L3.63281 6.53124L3.36035 6.26952H3.69727L3.7998 5.84765ZM5.70117 5.84765L5.80371 6.27343H6.14063L5.86816 6.53515L5.9707 6.96093L5.70117 6.6953L5.42871 6.96093L5.53125 6.53124L5.26172 6.26952H5.5957L5.70117 5.84765ZM7.59961 5.84765L7.70508 6.27343H8.03906L7.76953 6.53515L7.87207 6.96093L7.59961 6.6953L7.33008 6.96093L7.43262 6.53124L7.16016 6.26952H7.5L7.59961 5.84765ZM9.50098 5.84765L9.60352 6.27343H9.94043L9.66797 6.53515L9.77051 6.96093L9.50098 6.6953L9.22852 6.96093L9.33106 6.53124L9.06152 6.26952H9.39551L9.50098 5.84765ZM0.949219 6.92186L1.05469 7.35155H1.38867L1.11914 7.61327L1.22168 8.03514L0.949219 7.77343L0.679688 8.03514L0.782227 7.60936L0.509766 7.34765H0.849609L0.949219 6.92186ZM2.85059 6.92186L2.95313 7.35155H3.29004L3.01758 7.61327L3.12305 8.03514L2.85059 7.77343L2.57812 8.03514L2.68359 7.60936L2.41113 7.34765H2.74512L2.85059 6.92186ZM4.74902 6.92186L4.85449 7.35155H5.18555L4.91602 7.61327L5.01856 8.03514L4.74609 7.77343L4.47656 8.03514L4.5791 7.60936L4.30664 7.34765H4.64356L4.74902 6.92186ZM6.65039 6.92186L6.75293 7.35155H7.08984L6.81738 7.61327L6.92285 8.03514L6.65039 7.77343L6.37793 8.03514L6.4834 7.60936L6.21094 7.34765H6.54492L6.65039 6.92186ZM8.54883 6.92186L8.6543 7.35155H8.98828L8.71875 7.61327L8.82129 8.03514L8.54883 7.77343L8.2793 8.03514L8.38184 7.60936L8.11231 7.34765H8.44629L8.54883 6.92186ZM10.4502 6.92186L10.5527 7.35155H10.8896L10.6172 7.61327L10.7227 8.03514L10.4502 7.77343L10.1777 8.03514L10.2832 7.60936L10.0107 7.34765H10.3477L10.4502 6.92186ZM1.90137 7.99999L2.00391 8.42577H2.34082L2.06836 8.68749L2.1709 9.11717L1.90137 8.85155L1.62891 9.11327L1.73145 8.68749L1.46191 8.42577H1.7959L1.90137 7.99999ZM3.7998 7.99999L3.90527 8.42577H4.23926L3.9668 8.68749L4.07227 9.11717L3.7998 8.85155L3.52734 9.11327L3.63281 8.68749L3.36035 8.42577H3.69727L3.7998 7.99999ZM5.70117 7.99999L5.80371 8.42577H6.14063L5.86816 8.68749L5.9707 9.11717L5.70117 8.85155L5.42871 9.11327L5.53125 8.68749L5.26172 8.42577H5.5957L5.70117 7.99999ZM7.59961 7.99999L7.70508 8.42577H8.03906L7.76953 8.68749L7.87207 9.11717L7.59961 8.85155L7.33008 9.11327L7.43262 8.68749L7.16016 8.42577H7.5L7.59961 7.99999ZM9.50098 7.99999L9.60352 8.42577H9.94043L9.66797 8.68749L9.77051 9.11717L9.50098 8.85155L9.22852 9.11327L9.33106 8.68749L9.06152 8.42577H9.39551L9.50098 7.99999ZM0.949219 9.07811L1.05469 9.50389H1.38867L1.11914 9.76561L1.22168 10.1914L0.949219 9.92967L0.679688 10.1914L0.782227 9.7617L0.509766 9.49999H0.849609L0.949219 9.07811ZM2.85059 9.07811L2.95313 9.50389H3.29004L3.01758 9.76561L3.12305 10.1914L2.85059 9.92967L2.57812 10.1914L2.68359 9.7617L2.41113 9.49999H2.74512L2.85059 9.07811ZM4.74902 9.07811L4.85449 9.50389H5.18555L4.92188 9.76561L5.02441 10.1914L4.75195 9.92967L4.48242 10.1914L4.58496 9.7617L4.3125 9.49999H4.64941L4.74902 9.07811ZM6.65039 9.07811L6.75293 9.50389H7.08984L6.81738 9.76561L6.92285 10.1914L6.65039 9.92967L6.37793 10.1914L6.4834 9.7617L6.21094 9.49999H6.54492L6.65039 9.07811ZM8.54883 9.07811L8.6543 9.50389H8.98828L8.71875 9.76561L8.82129 10.1914L8.54883 9.92967L8.2793 10.1914L8.38184 9.7617L8.11231 9.49999H8.44629L8.54883 9.07811ZM10.4502 9.07811L10.5527 9.50389H10.8896L10.6172 9.76561L10.7227 10.1914L10.4502 9.92967L10.1777 10.1914L10.2832 9.7617L10.0107 9.49999H10.3477L10.4502 9.07811Z" fill="white"/>
</g>
<defs>
<clipPath id="clip0_303_107">
<rect width="20" height="20" rx="10" fill="white"/>
</clipPath>
</defs>
</svg>
