<svg width="22" height="22" viewBox="0 0 22 22" fill="none" xmlns="http://www.w3.org/2000/svg">
<path d="M14.5003 7.24707L18.0003 3.74707M20.0003 1.74707L18.0003 3.74707L20.0003 1.74707ZM10.3903 11.3571C10.9066 11.8665 11.3171 12.4731 11.598 13.1419C11.879 13.8106 12.0249 14.5283 12.0273 15.2537C12.0297 15.9791 11.8887 16.6978 11.6122 17.3684C11.3357 18.039 10.9293 18.6483 10.4164 19.1612C9.90351 19.6741 9.2942 20.0805 8.62358 20.357C7.95296 20.6334 7.23427 20.7745 6.50891 20.7721C5.78354 20.7697 5.06582 20.6238 4.39707 20.3428C3.72831 20.0619 3.12174 19.6514 2.61227 19.1351C1.6104 18.0978 1.05604 16.7084 1.06857 15.2664C1.0811 13.8243 1.65953 12.4448 2.67927 11.4251C3.69902 10.4053 5.07849 9.82689 6.52057 9.81436C7.96265 9.80183 9.35196 10.3562 10.3893 11.3581L10.3903 11.3571ZM10.3903 11.3571L14.5003 7.24707L10.3903 11.3571ZM14.5003 7.24707L17.5003 10.2471L21.0003 6.74707L18.0003 3.74707L14.5003 7.24707Z" stroke="#21A06A" stroke-width="2" stroke-linecap="round" stroke-linejoin="round"/>
</svg>
